<?xml version="1.0" encoding="UTF-8"?>
<svg width="1355px" height="642px" viewBox="0 0 1355 642" version="1.1" xmlns="http://www.w3.org/2000/svg" xmlns:xlink="http://www.w3.org/1999/xlink">
    <!-- Generator: Sketch 52.2 (67145) - http://www.bohemiancoding.com/sketch -->
    <title>simple-codelines copy 3</title>
    <desc>Created with Sketch.</desc>
    <g id="beerjs-valdivia" stroke="none" stroke-width="1" fill="none" fill-rule="evenodd" opacity="0.4">
        <g id="Board" transform="translate(-6.000000, -447.000000)" fill="#222D41" fill-rule="nonzero">
            <g id="Group-11" transform="translate(6.000000, -200.000000)">
                <g id="simple-codelines-copy-3" transform="translate(0.000000, 647.000000)">
                    <path d="M95.6649256,490 C94.8893212,490 94.2605696,489.340312 94.2605696,488.526546 C94.2605696,487.71278 94.8893212,487.053093 95.6649256,487.053093 C105.34019,487.042264 113.180968,478.815701 113.191288,468.66439 C113.191288,467.850624 113.82004,467.190936 114.595644,467.190936 C115.371248,467.190936 116,467.850624 116,468.66439 C115.984529,480.440992 106.889262,489.983768 95.6649256,490 Z M41.6346703,269.944597 L22.404356,269.944597 C21.6287516,269.944597 21,269.28491 21,268.471144 C21,267.657378 21.6287516,266.99769 22.404356,266.99769 L41.6346703,266.99769 C50.5653553,266.986864 57.8025326,259.393599 57.8128511,250.023503 L57.8128511,186.920391 C57.823173,175.922764 66.3178509,167.010127 76.7997438,166.999297 L100.795506,166.999297 C109.726191,166.988471 116.963368,159.395207 116.973687,150.02511 L116.973687,2.47345373 C116.973687,1.6596877 117.602438,1 118.378043,1 C119.153647,1 119.782399,1.6596877 119.782399,2.47345373 L119.782399,150.044756 C119.772077,161.042384 111.277399,169.955021 100.795506,169.96585 L76.7903814,169.96585 C67.8596965,169.976677 60.6225192,177.569941 60.6122007,186.940037 L60.6122007,250.043149 C60.5915796,261.029275 52.1056095,269.928383 41.6346703,269.944597 Z M209.595644,89.9966051 L156.904208,89.9966051 C156.128604,89.9966051 155.499852,89.3369174 155.499852,88.5231514 C155.499852,87.7093854 156.128604,87.0496977 156.904208,87.0496977 L209.595644,87.0496977 C210.371248,87.0496977 211,87.7093854 211,88.5231514 C211,89.3369174 210.371248,89.9966051 209.595644,89.9966051 Z" id="Shape"></path>
                    <path d="M92.4284314,110.959837 L51.0179272,110.959837 C50.2405516,110.959837 49.6103641,110.300518 49.6103641,109.487207 C49.6103641,108.673896 50.2405516,108.014578 51.0179272,108.014578 L92.4284314,108.014578 C93.205807,108.014578 93.8359944,108.673896 93.8359944,109.487207 C93.8359944,110.300518 93.205807,110.959837 92.4284314,110.959837 Z M144.79916,110.959837 L132.834874,110.959837 C132.057498,110.959837 131.427311,110.300518 131.427311,109.487207 C131.427311,108.673896 132.057498,108.014578 132.834874,108.014578 L144.79916,108.014578 C145.576535,108.014578 146.206723,108.673896 146.206723,109.487207 C146.206723,110.300518 145.576535,110.959837 144.79916,110.959837 Z M47.8743697,50.9452598 L7.34593838,50.9452598 C6.56856278,50.9452598 5.93837535,50.2859409 5.93837535,49.4726299 C5.93837535,48.6593189 6.56856278,48 7.34593838,48 L47.8743697,48 C48.6517453,48 49.2819328,48.6593189 49.2819328,49.4726299 C49.2819328,50.2859409 48.6517453,50.9452598 47.8743697,50.9452598 Z M83.8047619,50.9452598 L62.9915966,50.9452598 C62.214221,50.9452598 61.5840336,50.2859409 61.5840336,49.4726299 C61.5840336,48.6593189 62.214221,48 62.9915966,48 L83.8047619,48 C84.5821375,48 85.2123249,48.6593189 85.2123249,49.4726299 C85.2123249,50.2859409 84.5821375,50.9452598 83.8047619,50.9452598 Z M169.328291,50.9452598 L143.166387,50.9452598 C142.389011,50.9452598 141.758824,50.2859409 141.758824,49.4726299 C141.758824,48.6593189 142.389011,48 143.166387,48 L169.328291,48 C170.105667,48 170.735854,48.6593189 170.735854,49.4726299 C170.735854,50.2859409 170.105667,50.9452598 169.328291,50.9452598 Z M204.789496,50.9452598 L186.481793,50.9452598 C185.704417,50.9452598 185.07423,50.2859409 185.07423,49.4726299 C185.07423,48.6593189 185.704417,48 186.481793,48 L204.789496,48 C205.566871,48 206.197059,48.6593189 206.197059,49.4726299 C206.197059,50.2859409 205.566871,50.9452598 204.789496,50.9452598 Z M290.988655,50.9452598 L277.598039,50.9452598 C276.820664,50.9452598 276.190476,50.2859409 276.190476,49.4726299 C276.190476,48.6593189 276.820664,48 277.598039,48 L291.007423,48 C291.784799,48.0054221 292.410785,48.6691364 292.405602,49.4824474 C292.40042,50.2957585 291.766031,50.9506819 290.988655,50.9452598 Z M338.592437,50.9452598 L306.987955,50.9452598 C306.21058,50.9452598 305.580392,50.2859409 305.580392,49.4726299 C305.580392,48.6593189 306.21058,48 306.987955,48 L338.592437,48 C339.369813,48 340,48.6593189 340,49.4726299 C340,50.2859409 339.369813,50.9452598 338.592437,50.9452598 Z M72.1407563,70.8748512 L57.5865546,70.8748512 C56.809179,70.8748512 56.1789916,70.2155324 56.1789916,69.4022213 C56.1789916,68.5889103 56.809179,67.9295914 57.5865546,67.9295914 L72.1407563,67.9295914 C72.9181319,67.9295914 73.5483193,68.5889103 73.5483193,69.4022213 C73.5483193,70.2155324 72.9181319,70.8748512 72.1407563,70.8748512 Z M103.416807,151.044823 L86.0568627,151.044823 C85.2794872,151.044823 84.6492997,150.385505 84.6492997,149.572194 C84.6492997,148.758883 85.2794872,148.099564 86.0568627,148.099564 L103.416807,148.099564 C104.194182,148.099564 104.82437,148.758883 104.82437,149.572194 C104.82437,150.385505 104.194182,151.044823 103.416807,151.044823 Z M82.7068627,170.974415 L33.2638655,170.974415 C32.48649,170.974415 31.8563025,170.315096 31.8563025,169.501785 C31.8563025,168.688474 32.48649,168.029155 33.2638655,168.029155 L82.7068627,168.029155 C83.4842383,168.029155 84.1144258,168.688474 84.1144258,169.501785 C84.1144258,170.315096 83.4842383,170.974415 82.7068627,170.974415 Z M99.485014,130.889429 L85.2310924,130.889429 C84.4537168,130.889429 83.8235294,130.23011 83.8235294,129.416799 C83.8235294,128.603488 84.4537168,127.944169 85.2310924,127.944169 L99.485014,127.944169 C100.26239,127.944169 100.892577,128.603488 100.892577,129.416799 C100.892577,130.23011 100.26239,130.889429 99.485014,130.889429 Z M42.6007003,231.018445 L6.40756303,231.018445 C5.63018743,231.018445 5,230.359126 5,229.545815 C5,228.732504 5.63018743,228.073185 6.40756303,228.073185 L42.6288515,228.073185 C43.1317254,228.078446 43.5937172,228.36399 43.8407991,228.822254 C44.087881,229.280517 44.0825154,229.841881 43.8267234,230.294883 C43.5709315,230.747886 43.1035741,231.023706 42.6007003,231.018445 Z M95.1778711,231.018445 L74.5336134,231.018445 C73.7562379,231.018445 73.1260504,230.359126 73.1260504,229.545815 C73.1260504,228.732504 73.7562379,228.073185 74.5336134,228.073185 L95.1778711,228.073185 C95.9552467,228.073185 96.5854342,228.732504 96.5854342,229.545815 C96.5854342,230.359126 95.9552467,231.018445 95.1778711,231.018445 Z M182.897199,231.018445 L167.104342,231.018445 C166.326966,231.018445 165.696779,230.359126 165.696779,229.545815 C165.696779,228.732504 166.326966,228.073185 167.104342,228.073185 L182.897199,228.073185 C183.674574,228.073185 184.304762,228.732504 184.304762,229.545815 C184.304762,230.359126 183.674574,231.018445 182.897199,231.018445 Z M235.033333,231.018445 L198.596218,231.018445 C197.818843,231.018445 197.188655,230.359126 197.188655,229.545815 C197.188655,228.732504 197.818843,228.073185 198.596218,228.073185 L235.02395,228.073185 C235.526823,228.071431 235.992392,228.350493 236.245281,228.805249 C236.49817,229.260005 236.499958,229.821369 236.249973,230.277879 C235.999988,230.734389 235.536207,231.016691 235.033333,231.018445 Z M155.233894,250.948036 L133.35098,250.948036 C132.573605,250.948036 131.943417,250.288718 131.943417,249.475407 C131.943417,248.662096 132.573605,248.002777 133.35098,248.002777 L155.233894,248.002777 C156.011269,248.002777 156.641457,248.662096 156.641457,249.475407 C156.641457,250.288718 156.011269,250.948036 155.233894,250.948036 Z M119.80084,190.933459 L105.040196,190.933459 C104.26282,190.933459 103.632633,190.27414 103.632633,189.460829 C103.632633,188.647518 104.26282,187.988199 105.040196,187.988199 L119.80084,187.988199 C120.578216,187.988199 121.208403,188.647518 121.208403,189.460829 C121.208403,190.27414 120.578216,190.933459 119.80084,190.933459 Z M179.594118,190.933459 L137.057563,190.933459 C136.280187,190.933459 135.65,190.27414 135.65,189.460829 C135.65,188.647518 136.280187,187.988199 137.057563,187.988199 L179.594118,187.988199 C180.371493,187.988199 181.001681,188.647518 181.001681,189.460829 C181.001681,190.27414 180.371493,190.933459 179.594118,190.933459 Z M215.37437,190.933459 L193.360084,190.933459 C192.582708,190.933459 191.952521,190.27414 191.952521,189.460829 C191.952521,188.647518 192.582708,187.988199 193.360084,187.988199 L215.37437,187.988199 C216.151745,187.988199 216.781933,188.647518 216.781933,189.460829 C216.781933,190.27414 216.151745,190.933459 215.37437,190.933459 Z M129.419188,210.86305 L74.4866947,210.86305 C73.7093191,210.86305 73.0791317,210.203732 73.0791317,209.39042 C73.0791317,208.577109 73.7093191,207.917791 74.4866947,207.917791 L129.419188,207.917791 C130.196563,207.917791 130.826751,208.577109 130.826751,209.39042 C130.826751,210.203732 130.196563,210.86305 129.419188,210.86305 Z M197.104202,210.86305 L156.894818,210.86305 C156.117442,210.86305 155.487255,210.203732 155.487255,209.39042 C155.487255,208.577109 156.117442,207.917791 156.894818,207.917791 L197.104202,207.917791 C197.881577,207.917791 198.511765,208.577109 198.511765,209.39042 C198.511765,210.203732 197.881577,210.86305 197.104202,210.86305 Z M264.188655,210.86305 L211.283053,210.86305 C210.505678,210.86305 209.87549,210.203732 209.87549,209.39042 C209.87549,208.577109 210.505678,207.917791 211.283053,207.917791 L264.179272,207.917791 C264.682146,207.916037 265.147714,208.195098 265.400603,208.649854 C265.653492,209.104611 265.65528,209.665974 265.405295,210.122484 C265.15531,210.578994 264.691529,210.861297 264.188655,210.86305 Z M33.4233894,210.86305 L13.4547619,210.86305 C12.6773863,210.86305 12.0471989,210.203732 12.0471989,209.39042 C12.0471989,208.577109 12.6773863,207.917791 13.4547619,207.917791 L33.4233894,207.917791 C34.2007649,207.917791 34.8309524,208.577109 34.8309524,209.39042 C34.8309524,210.203732 34.2007649,210.86305 33.4233894,210.86305 Z M69.7197479,291.033023 L35.7787115,291.033023 C35.0013359,291.033023 34.3711485,290.373704 34.3711485,289.560393 C34.3711485,288.747082 35.0013359,288.087763 35.7787115,288.087763 L69.7197479,288.087763 C70.4971235,288.087763 71.1273109,288.747082 71.1273109,289.560393 C71.1273109,290.373704 70.4971235,291.033023 69.7197479,291.033023 Z M113.382353,291.033023 L84.5085434,291.033023 C83.7311678,291.033023 83.1009804,290.373704 83.1009804,289.560393 C83.1009804,288.747082 83.7311678,288.087763 84.5085434,288.087763 L113.382353,288.087763 C114.159729,288.087763 114.789916,288.747082 114.789916,289.560393 C114.789916,290.373704 114.159729,291.033023 113.382353,291.033023 Z M205.033473,291.033023 L172.115266,291.033023 C171.337891,291.033023 170.707703,290.373704 170.707703,289.560393 C170.707703,288.747082 171.337891,288.087763 172.115266,288.087763 L205.033473,288.087763 C205.810849,288.087763 206.441036,288.747082 206.441036,289.560393 C206.441036,290.373704 205.810849,291.033023 205.033473,291.033023 Z M88.6186275,270.877628 L66.2571429,270.877628 C65.4797673,270.877628 64.8495798,270.218309 64.8495798,269.404998 C64.8495798,268.591687 65.4797673,267.932368 66.2571429,267.932368 L88.6186275,267.932368 C89.396003,267.932368 90.0261905,268.591687 90.0261905,269.404998 C90.0261905,270.218309 89.396003,270.877628 88.6186275,270.877628 Z M109.863445,270.877628 L99.5413165,270.877628 C98.7639409,270.877628 98.1337535,270.218309 98.1337535,269.404998 C98.1337535,268.591687 98.7639409,267.932368 99.5413165,267.932368 L109.863445,267.932368 C110.640821,267.932368 111.271008,268.591687 111.271008,269.404998 C111.271008,270.218309 110.640821,270.877628 109.863445,270.877628 Z M122.240616,370.977192 L97.0921569,370.977192 C96.3147813,370.977192 95.6845938,370.317873 95.6845938,369.504562 C95.6845938,368.691251 96.3147813,368.031932 97.0921569,368.031932 L122.25,368.031932 C123.027376,368.034643 123.655462,368.696159 123.652871,369.50947 C123.65028,370.322781 123.017992,370.979903 122.240616,370.977192 Z M151.621148,390.906783 L143.307143,390.906783 C142.529767,390.906783 141.89958,390.247464 141.89958,389.434153 C141.89958,388.620842 142.529767,387.961523 143.307143,387.961523 L151.621148,387.961523 C152.398524,387.961523 153.028711,388.620842 153.028711,389.434153 C153.028711,390.247464 152.398524,390.906783 151.621148,390.906783 Z M50.1077031,330.892205 L7.34593838,330.892205 C6.56856278,330.892205 5.93837535,330.232887 5.93837535,329.419576 C5.93837535,328.606265 6.56856278,327.946946 7.34593838,327.946946 L50.1358543,327.946946 C50.9132299,327.955079 51.5371155,328.620991 51.5293417,329.434302 C51.521568,330.247613 50.8850787,330.900339 50.1077031,330.892205 Z M172.5,330.892205 L156.359944,330.892205 C155.582568,330.892205 154.952381,330.232887 154.952381,329.419576 C154.952381,328.606265 155.582568,327.946946 156.359944,327.946946 L172.5,327.946946 C173.277376,327.946946 173.907563,328.606265 173.907563,329.419576 C173.907563,330.232887 173.277376,330.892205 172.5,330.892205 Z M73.3981793,350.821797 L54.2647059,350.821797 C53.4873303,350.821797 52.8571429,350.162478 52.8571429,349.349167 C52.8571429,348.535856 53.4873303,347.876537 54.2647059,347.876537 L73.3981793,347.876537 C74.1755549,347.876537 74.8057423,348.535856 74.8057423,349.349167 C74.8057423,350.162478 74.1755549,350.821797 73.3981793,350.821797 Z M122.240616,350.821797 L86.7137255,350.821797 C85.9363499,350.821797 85.3061625,350.162478 85.3061625,349.349167 C85.3061625,348.535856 85.9363499,347.876537 86.7137255,347.876537 L122.240616,347.876537 C123.017992,347.876537 123.648179,348.535856 123.648179,349.349167 C123.648179,350.162478 123.017992,350.821797 122.240616,350.821797 Z M170.304202,350.821797 L147.529832,350.821797 C146.752456,350.821797 146.122269,350.162478 146.122269,349.349167 C146.122269,348.535856 146.752456,347.876537 147.529832,347.876537 L170.304202,347.876537 C171.081577,347.876537 171.711765,348.535856 171.711765,349.349167 C171.711765,350.162478 171.081577,350.821797 170.304202,350.821797 Z M187.692297,350.821797 L179.246919,350.821797 C178.469543,350.821797 177.839356,350.162478 177.839356,349.349167 C177.839356,348.535856 178.469543,347.876537 179.246919,347.876537 L187.692297,347.876537 C188.469673,347.876537 189.09986,348.535856 189.09986,349.349167 C189.09986,350.162478 188.469673,350.821797 187.692297,350.821797 Z M112.2,430.991769 L74.4491597,430.991769 C73.6717841,430.991769 73.0415966,430.33245 73.0415966,429.519139 C73.0415966,428.705828 73.6717841,428.046509 74.4491597,428.046509 L112.2,428.046509 C112.977376,428.046509 113.607563,428.705828 113.607563,429.519139 C113.607563,430.33245 112.977376,430.991769 112.2,430.991769 Z M58.3372549,430.883776 L22.6789916,430.883776 C21.901616,430.883776 21.2714286,430.224457 21.2714286,429.411146 C21.2714286,428.597835 21.901616,427.938516 22.6789916,427.938516 L58.3372549,427.938516 C59.1146305,427.938516 59.7448179,428.597835 59.7448179,429.411146 C59.7448179,430.224457 59.1146305,430.883776 58.3372549,430.883776 Z M65.7785714,450.921361 L54.8558824,450.921361 C54.0785068,450.921361 53.4483193,450.262042 53.4483193,449.448731 C53.4483193,448.63542 54.0785068,447.976101 54.8558824,447.976101 L65.7785714,447.976101 C66.555947,447.976101 67.1861345,448.63542 67.1861345,449.448731 C67.1861345,450.262042 66.555947,450.921361 65.7785714,450.921361 Z M193.360084,450.921361 L171.721148,450.921361 C170.943773,450.921361 170.313585,450.262042 170.313585,449.448731 C170.313585,448.63542 170.943773,447.976101 171.721148,447.976101 L193.369468,447.976101 C194.146843,447.978812 194.77493,448.640328 194.772339,449.453639 C194.769748,450.26695 194.13746,450.924072 193.360084,450.921361 Z M75.7628852,410.836374 L60.5142857,410.836374 C59.7369101,410.836374 59.1067227,410.177056 59.1067227,409.363745 C59.1067227,408.550434 59.7369101,407.891115 60.5142857,407.891115 L75.7628852,407.891115 C76.5402607,407.891115 77.1704482,408.550434 77.1704482,409.363745 C77.1704482,410.177056 76.5402607,410.836374 75.7628852,410.836374 Z M97.9648459,410.836374 L89.7446779,410.836374 C88.9673023,410.836374 88.3371148,410.177056 88.3371148,409.363745 C88.3371148,408.550434 88.9673023,407.891115 89.7446779,407.891115 L97.9648459,407.891115 C98.7422215,407.891115 99.372409,408.550434 99.372409,409.363745 C99.372409,410.177056 98.7422215,410.836374 97.9648459,410.836374 Z M185.214986,641.96073 C184.43761,641.96073 183.807423,641.301411 183.807423,640.4881 L183.807423,627.725307 C183.776435,618.381211 176.532964,610.820451 167.601681,610.809699 L91.2179272,610.888239 C86.170772,610.914341 81.3204309,608.841683 77.7339551,605.126239 C74.1474792,601.410796 72.1186635,596.356926 72.0938375,591.076458 L71.9155462,535.116521 L71.9155462,529.500893 C71.9207684,519.288568 64.0257595,510.997861 54.2647059,510.965391 L25.3908964,510.965391 C24.6135208,510.965391 23.9833333,510.306072 23.9833333,509.492761 C23.9833333,508.67945 24.6135208,508.020131 25.3908964,508.020131 L54.2647059,508.020131 C65.5820477,508.036354 74.7527005,517.630936 74.7682073,529.47144 L74.7682073,535.077251 L74.9464986,591.037188 C74.9671848,600.38736 82.215175,607.957228 91.1522409,607.962614 L167.535994,607.884074 C178.034519,607.889451 186.549773,616.780774 186.57563,627.764578 L186.57563,640.52737 C186.57563,641.340681 185.945443,642 185.168067,642 L185.214986,641.96073 Z M105.687675,510.965391 L78.7281513,510.965391 C77.9507757,510.965391 77.3205882,510.306072 77.3205882,509.492761 C77.3205882,508.67945 77.9507757,508.020131 78.7281513,508.020131 L105.687675,508.020131 C106.465051,508.020131 107.095238,508.67945 107.095238,509.492761 C107.095238,510.306072 106.465051,510.965391 105.687675,510.965391 Z M179.209384,510.965391 L120.091737,510.965391 C119.314361,510.965391 118.684174,510.306072 118.684174,509.492761 C118.684174,508.67945 119.314361,508.020131 120.091737,508.020131 L179.209384,508.020131 C179.986759,508.020131 180.616947,508.67945 180.616947,509.492761 C180.616947,510.306072 179.986759,510.965391 179.209384,510.965391 Z" id="Shape"></path>
                    <path d="M60.651855,530.158565 L48.0304973,530.158565 C47.254263,530.158565 46.6250009,529.499524 46.6250009,528.686557 C46.6250009,527.873589 47.254263,527.214548 48.0304973,527.214548 L60.651855,527.214548 C61.4280893,527.214548 62.0573514,527.873589 62.0573514,528.686557 C62.0573514,529.499524 61.4280893,530.158565 60.651855,530.158565 Z M141.130579,470.169314 L103.482016,470.169314 C102.705781,470.169314 102.076519,469.510273 102.076519,468.697305 C102.076519,467.884338 102.705781,467.225297 103.482016,467.225297 L141.130579,467.225297 C141.906814,467.225297 142.536076,467.884338 142.536076,468.697305 C142.536076,469.510273 141.906814,470.169314 141.130579,470.169314 Z M38.3887919,490.090495 L7.56157068,490.090495 C6.78533645,490.090495 6.15607427,489.431454 6.15607427,488.618486 C6.15607427,487.805519 6.78533645,487.146478 7.56157068,487.146478 L38.3887919,487.146478 C39.1650261,487.146478 39.7942883,487.805519 39.7942883,488.618486 C39.7942883,489.431454 39.1650261,490.090495 38.3887919,490.090495 Z M124.686271,490.090495 L92.1443446,490.090495 C91.3681103,490.090495 90.7388481,489.431454 90.7388481,488.618486 C90.7388481,487.805519 91.3681103,487.146478 92.1443446,487.146478 L124.686271,487.146478 C125.462506,487.146478 126.091768,487.805519 126.091768,488.618486 C126.091768,489.431454 125.462506,490.090495 124.686271,490.090495 Z M144.175822,490.090495 L137.916678,490.090495 C137.140443,490.090495 136.511181,489.431454 136.511181,488.618486 C136.511181,487.805519 137.140443,487.146478 137.916678,487.146478 L144.175822,487.146478 C144.952056,487.146478 145.581318,487.805519 145.581318,488.618486 C145.581318,489.431454 144.952056,490.090495 144.175822,490.090495 Z M148.84207,570.187382 L118.267838,570.187382 C117.491604,570.187382 116.862341,569.528341 116.862341,568.715373 C116.862341,567.902405 117.491604,567.243365 118.267838,567.243365 L148.84207,567.243365 C149.618304,567.243365 150.247566,567.902405 150.247566,568.715373 C150.247566,569.528341 149.618304,570.187382 148.84207,570.187382 Z M173.288337,570.187382 L160.60139,570.187382 C159.825155,570.187382 159.195893,569.528341 159.195893,568.715373 C159.195893,567.902405 159.825155,567.243365 160.60139,567.243365 L173.288337,567.243365 C174.064571,567.243365 174.693834,567.902405 174.693834,568.715373 C174.693834,569.528341 174.064571,570.187382 173.288337,570.187382 Z M132.95996,590.147816 L91.6758457,590.147816 C90.8996115,590.147816 90.2703493,589.488776 90.2703493,588.675808 C90.2703493,587.86284 90.8996115,587.203799 91.6758457,587.203799 L132.95996,587.203799 C133.736194,587.203799 134.365457,587.86284 134.365457,588.675808 C134.365457,589.488776 133.736194,590.147816 132.95996,590.147816 Z M32.4388571,550.079746 L1.40549641,550.079746 C0.629262176,550.079746 9.50612768e-17,549.420705 0,548.607738 C-9.50612768e-17,547.79477 0.629262176,547.135729 1.40549641,547.135729 L32.4388571,547.135729 C33.2150913,547.135729 33.8443535,547.79477 33.8443535,548.607738 C33.8443535,549.420705 33.2150913,550.079746 32.4388571,550.079746 Z M122.812276,550.079746 L104.437753,550.079746 C103.661519,550.079746 103.032257,549.420705 103.032257,548.607738 C103.032257,547.79477 103.661519,547.135729 104.437753,547.135729 L122.812276,547.135729 C123.58851,547.135729 124.217773,547.79477 124.217773,548.607738 C124.217773,549.420705 123.58851,550.079746 122.812276,550.079746 Z M156.37553,550.079746 L135.658513,550.079746 C134.882279,550.079746 134.253017,549.420705 134.253017,548.607738 C134.253017,547.79477 134.882279,547.135729 135.658513,547.135729 L156.37553,547.135729 C157.151765,547.135729 157.781027,547.79477 157.781027,548.607738 C157.781027,549.420705 157.151765,550.079746 156.37553,550.079746 Z M345.611567,590.147816 L308.262842,590.147816 C307.486608,590.147816 306.857346,589.488776 306.857346,588.675808 C306.857346,587.86284 307.486608,587.203799 308.262842,587.203799 L345.611567,587.203799 C346.387801,587.203799 347.017063,587.86284 347.017063,588.675808 C347.017063,589.488776 346.387801,590.147816 345.611567,590.147816 Z M1253.76839,90.479453 L1205.32561,90.479453 C1204.54938,90.479453 1203.92011,89.8204124 1203.92011,89.0074446 C1203.92011,88.1944767 1204.54938,87.5354361 1205.32561,87.5354361 L1253.76839,87.5354361 C1254.54462,87.5354361 1255.17388,88.1944767 1255.17388,89.0074446 C1255.17388,89.8204124 1254.54462,90.479453 1253.76839,90.479453 Z M1194.42833,90.479453 L1165.07219,90.479453 C1164.29596,90.479453 1163.6667,89.8204124 1163.6667,89.0074446 C1163.6667,88.1944767 1164.29596,87.5354361 1165.07219,87.5354361 L1194.42833,87.5354361 C1195.20456,87.5354361 1195.83382,88.1944767 1195.83382,89.0074446 C1195.83382,89.8204124 1195.20456,90.479453 1194.42833,90.479453 Z M1119.70277,90.479453 L1093.14826,90.479453 C1092.37202,90.479453 1091.74276,89.8204124 1091.74276,89.0074446 C1091.74276,88.1944767 1092.37202,87.5354361 1093.14826,87.5354361 L1119.70277,87.5354361 C1120.479,87.5354361 1121.10827,88.1944767 1121.10827,89.0074446 C1121.10827,89.8204124 1120.479,90.479453 1119.70277,90.479453 Z M1354.8798,90.479453 L1331.53919,90.479453 C1330.76295,90.479453 1330.13369,89.8204124 1330.13369,89.0074446 C1330.13369,88.1944767 1330.76295,87.5354361 1331.53919,87.5354361 L1354.90791,87.5354361 C1355.68414,87.5435658 1356.30711,88.2091968 1356.29935,89.0221646 C1356.29159,89.8351325 1355.65603,90.4875827 1354.8798,90.479453 Z M1206.91851,110.400634 L1192.30134,110.400634 C1191.52511,110.400634 1190.89585,109.741593 1190.89585,108.928626 C1190.89585,108.115658 1191.52511,107.456617 1192.30134,107.456617 L1206.91851,107.456617 C1207.69474,107.456617 1208.324,108.115658 1208.324,108.928626 C1208.324,109.741593 1207.69474,110.400634 1206.91851,110.400634 Z M1288.03439,50.4113829 L1228.46945,50.4113829 C1227.69322,50.4113829 1227.06395,49.7523422 1227.06395,48.9393744 C1227.06395,48.1264066 1227.69322,47.467366 1228.46945,47.467366 L1288.04376,47.467366 C1288.81999,47.4700759 1289.44716,48.1313133 1289.44457,48.9442811 C1289.44198,49.7572489 1288.81062,50.4140927 1288.03439,50.4113829 Z M1120.02135,50.4113829 L1105.55411,50.4113829 C1104.77787,50.4113829 1104.14861,49.7523422 1104.14861,48.9393744 C1104.14861,48.1264066 1104.77787,47.467366 1105.55411,47.467366 L1120.02135,47.467366 C1120.79758,47.467366 1121.42684,48.1264066 1121.42684,48.9393744 C1121.42684,49.7523422 1120.79758,50.4113829 1120.02135,50.4113829 Z M1093.13889,50.4113829 L1002.48437,50.4113829 C1001.70813,50.4113829 1001.07887,49.7523422 1001.07887,48.9393744 C1001.07887,48.1264066 1001.70813,47.467366 1002.48437,47.467366 L1093.13889,47.467366 C1093.91512,47.467366 1094.54438,48.1264066 1094.54438,48.9393744 C1094.54438,49.7523422 1093.91512,50.4113829 1093.13889,50.4113829 Z M1312.4057,50.4113829 L1300.3278,50.4113829 C1299.55156,50.4113829 1298.9223,49.7523422 1298.9223,48.9393744 C1298.9223,48.1264066 1299.55156,47.467366 1300.3278,47.467366 L1312.4057,47.467366 C1313.18193,47.467366 1313.81119,48.1264066 1313.81119,48.9393744 C1313.81119,49.7523422 1313.18193,50.4113829 1312.4057,50.4113829 Z M1067.54011,70.332564 L1046.69192,70.332564 C1045.91568,70.332564 1045.28642,69.6735233 1045.28642,68.8605555 C1045.28642,68.0475877 1045.91568,67.3885471 1046.69192,67.3885471 L1067.55885,67.3885471 C1068.06099,67.392053 1068.52319,67.6758559 1068.77136,68.1330499 C1069.01953,68.5902439 1069.01596,69.1513704 1068.76199,69.6050584 C1068.50803,70.0587464 1068.04225,70.3360699 1067.54011,70.332564 Z M1266.97068,70.332564 L1239.71342,70.332564 C1238.93719,70.332564 1238.30793,69.6735233 1238.30793,68.8605555 C1238.30793,68.0475877 1238.93719,67.3885471 1239.71342,67.3885471 L1266.97068,67.3885471 C1267.74692,67.3885471 1268.37618,68.0475877 1268.37618,68.8605555 C1268.37618,69.6735233 1267.74692,70.332564 1266.97068,70.332564 Z M1239.16059,30.4509482 L1210.46973,30.4509482 C1209.69349,30.4509482 1209.06423,29.7919076 1209.06423,28.9789398 C1209.06423,28.165972 1209.69349,27.5069313 1210.46973,27.5069313 L1239.16059,27.5069313 C1239.93683,27.5069313 1240.56609,28.165972 1240.56609,28.9789398 C1240.56609,29.7919076 1239.93683,30.4509482 1239.16059,30.4509482 Z M1077.45355,30.4509482 L1042.47543,30.4509482 C1041.69919,30.4509482 1041.06993,29.7919076 1041.06993,28.9789398 C1041.06993,28.165972 1041.69919,27.5069313 1042.47543,27.5069313 L1077.44418,27.5069313 C1078.22041,27.5042214 1078.85177,28.1610653 1078.85436,28.9740331 C1078.85695,29.7870009 1078.22978,30.4482383 1077.45355,30.4509482 Z M1026.07797,30.4509482 L919.260241,30.4509482 C918.484007,30.4509482 917.854745,29.7919076 917.854745,28.9789398 C917.854745,28.165972 918.484007,27.5069313 919.260241,27.5069313 L1026.07797,27.5069313 C1026.8542,27.5069313 1027.48346,28.165972 1027.48346,28.9789398 C1027.48346,29.7919076 1026.8542,30.4509482 1026.07797,30.4509482 Z M373.655905,30.4509482 L299.904824,30.4509482 C299.128589,30.4509482 298.499327,29.7919076 298.499327,28.9789398 C298.499327,28.165972 299.128589,27.5069313 299.904824,27.5069313 L373.684015,27.5069313 C374.186151,27.5121903 374.647464,27.797613 374.894183,28.2556835 C375.140902,28.713754 375.135545,29.2748805 374.880128,29.727692 C374.624712,30.1805035 374.158041,30.4562072 373.655905,30.4509482 Z M425.865412,30.4509482 L386.689542,30.4509482 C385.913308,30.4509482 385.284046,29.7919076 385.284046,28.9789398 C385.284046,28.165972 385.913308,27.5069313 386.689542,27.5069313 L425.865412,27.5069313 C426.641646,27.5069313 427.270908,28.165972 427.270908,28.9789398 C427.270908,29.7919076 426.641646,30.4509482 425.865412,30.4509482 Z M1248.21199,150.468704 L1239.71342,150.468704 C1238.93719,150.468704 1238.30793,149.809664 1238.30793,148.996696 C1238.30793,148.183728 1238.93719,147.524687 1239.71342,147.524687 L1248.21199,147.524687 C1248.98822,147.524687 1249.61749,148.183728 1249.61749,148.996696 C1249.61749,149.809664 1248.98822,150.468704 1248.21199,150.468704 Z M1296.79532,150.468704 L1263.73804,150.468704 C1262.96181,150.468704 1262.33254,149.809664 1262.33254,148.996696 C1262.33254,148.183728 1262.96181,147.524687 1263.73804,147.524687 L1296.79532,147.524687 C1297.57155,147.524687 1298.20081,148.183728 1298.20081,148.996696 C1298.20081,149.809664 1297.57155,150.468704 1296.79532,150.468704 Z M1209.14856,170.389885 L1186.83865,170.389885 C1186.06241,170.389885 1185.43315,169.730845 1185.43315,168.917877 C1185.43315,168.104909 1186.06241,167.445868 1186.83865,167.445868 L1209.14856,167.445868 C1209.92479,167.445868 1210.55406,168.104909 1210.55406,168.917877 C1210.55406,169.730845 1209.92479,170.389885 1209.14856,170.389885 Z M1329.05614,170.389885 L1296.95461,170.389885 C1296.17837,170.389885 1295.54911,169.730845 1295.54911,168.917877 C1295.54911,168.104909 1296.17837,167.445868 1296.95461,167.445868 L1329.05614,167.445868 C1329.83238,167.445868 1330.46164,168.104909 1330.46164,168.917877 C1330.46164,169.730845 1329.83238,170.389885 1329.05614,170.389885 Z M1290.93908,130.321815 L1273.67022,130.321815 C1272.89398,130.321815 1272.26472,129.662775 1272.26472,128.849807 C1272.26472,128.036839 1272.89398,127.377798 1273.67022,127.377798 L1290.93908,127.377798 C1291.71532,127.377798 1292.34458,128.036839 1292.34458,128.849807 C1292.34458,129.662775 1291.71532,130.321815 1290.93908,130.321815 Z M1180.13911,230.408577 L1168.5016,230.408577 C1167.72537,230.408577 1167.09611,229.749536 1167.09611,228.936568 C1167.09611,228.1236 1167.72537,227.46456 1168.5016,227.46456 L1180.13911,227.46456 C1180.91535,227.46456 1181.54461,228.1236 1181.54461,228.936568 C1181.54461,229.749536 1180.91535,230.408577 1180.13911,230.408577 Z M1215.12661,230.408577 L1192.47937,230.408577 C1191.70314,230.408577 1191.07388,229.749536 1191.07388,228.936568 C1191.07388,228.1236 1191.70314,227.46456 1192.47937,227.46456 L1215.12661,227.46456 C1215.90284,227.46456 1216.5321,228.1236 1216.5321,228.936568 C1216.5321,229.749536 1215.90284,230.408577 1215.12661,230.408577 Z M1253.06564,230.408577 L1239.71342,230.408577 C1238.93719,230.408577 1238.30793,229.749536 1238.30793,228.936568 C1238.30793,228.1236 1238.93719,227.46456 1239.71342,227.46456 L1253.06564,227.46456 C1253.84187,227.46456 1254.47113,228.1236 1254.47113,228.936568 C1254.47113,229.749536 1253.84187,230.408577 1253.06564,230.408577 Z M1302.09872,230.408577 L1266.97068,230.408577 C1266.19445,230.408577 1265.56519,229.749536 1265.56519,228.936568 C1265.56519,228.1236 1266.19445,227.46456 1266.97068,227.46456 L1302.09872,227.46456 C1302.87496,227.46456 1303.50422,228.1236 1303.50422,228.936568 C1303.50422,229.749536 1302.87496,230.408577 1302.09872,230.408577 Z M1353.97091,230.408577 L1335.10915,230.408577 C1334.33291,230.408577 1333.70365,229.749536 1333.70365,228.936568 C1333.70365,228.1236 1334.33291,227.46456 1335.10915,227.46456 L1353.97091,227.46456 C1354.74714,227.46456 1355.37641,228.1236 1355.37641,228.936568 C1355.37641,229.749536 1354.74714,230.408577 1353.97091,230.408577 Z M1313.26773,190.340507 L1273.66085,190.340507 C1272.88461,190.340506 1272.25535,189.681466 1272.25535,188.868498 C1272.25535,188.05553 1272.88461,187.39649 1273.66085,187.39649 L1313.26773,187.39649 C1314.04397,187.39649 1314.67323,188.05553 1314.67323,188.868498 C1314.67323,189.681466 1314.04397,190.340507 1313.26773,190.340507 Z M1266.03368,210.261688 L1239.16059,210.261688 C1238.38436,210.261688 1237.7551,209.602647 1237.7551,208.789679 C1237.7551,207.976711 1238.38436,207.317671 1239.16059,207.317671 L1266.03368,207.317671 C1266.80992,207.317671 1267.43918,207.976711 1267.43918,208.789679 C1267.43918,209.602647 1266.80992,210.261688 1266.03368,210.261688 Z M1290.93908,210.261688 L1281.05376,210.261688 C1280.27752,210.261688 1279.64826,209.602647 1279.64826,208.789679 C1279.64826,207.976711 1280.27752,207.317671 1281.05376,207.317671 L1290.93908,207.317671 C1291.71532,207.317671 1292.34458,207.976711 1292.34458,208.789679 C1292.34458,209.602647 1291.71532,210.261688 1290.93908,210.261688 Z M1199.52559,290.770737 L1174.12359,290.770737 C1173.34736,290.770737 1172.71809,290.111696 1172.71809,289.298728 C1172.71809,288.48576 1173.34736,287.82672 1174.12359,287.82672 L1199.49749,287.82672 C1199.99962,287.821461 1200.46629,288.097165 1200.72171,288.549976 C1200.97712,289.002788 1200.98248,289.563914 1200.73576,290.021985 C1200.48904,290.480055 1200.02773,290.765478 1199.52559,290.770737 Z M1239.16059,290.770737 L1214.59252,290.770737 C1213.81628,290.770737 1213.18702,290.111696 1213.18702,289.298728 C1213.18702,288.48576 1213.81628,287.82672 1214.59252,287.82672 L1239.16059,287.82672 C1239.93683,287.82672 1240.56609,288.48576 1240.56609,289.298728 C1240.56609,290.111696 1239.93683,290.770737 1239.16059,290.770737 Z M1302.09872,290.770737 L1255.78293,290.770737 C1255.0067,290.770737 1254.37743,290.111696 1254.37743,289.298728 C1254.37743,288.48576 1255.0067,287.82672 1255.78293,287.82672 L1302.09872,287.82672 C1302.87496,287.82672 1303.50422,288.48576 1303.50422,289.298728 C1303.50422,290.111696 1302.87496,290.770737 1302.09872,290.770737 Z M1183.15625,310.319009 L1155.98332,310.319009 C1155.20708,310.319009 1154.57782,309.659968 1154.57782,308.847001 C1154.57782,308.034033 1155.20708,307.374992 1155.98332,307.374992 L1183.15625,307.374992 C1183.93248,307.374992 1184.56174,308.034033 1184.56174,308.847001 C1184.56174,309.659968 1183.93248,310.319009 1183.15625,310.319009 Z M1351.65653,330.200937 L1328.96244,330.200937 C1328.18621,330.200937 1327.55695,329.541896 1327.55695,328.728928 C1327.55695,327.91596 1328.18621,327.25692 1328.96244,327.25692 L1351.65653,327.25692 C1352.43276,327.25692 1353.06202,327.91596 1353.06202,328.728928 C1353.06202,329.541896 1352.43276,330.200937 1351.65653,330.200937 Z M1223.08171,270.250939 L1208.7925,270.250939 C1208.01627,270.250939 1207.387,269.591898 1207.387,268.77893 C1207.387,267.965963 1208.01627,267.306922 1208.7925,267.306922 L1223.03486,267.306922 C1223.8111,267.293373 1224.45085,267.941429 1224.46379,268.754397 C1224.47672,269.567365 1223.85795,270.237389 1223.08171,270.250939 Z M1265.41527,270.250939 L1238.36415,270.250939 C1237.58791,270.250939 1236.95865,269.591898 1236.95865,268.77893 C1236.95865,267.965963 1237.58791,267.306922 1238.36415,267.306922 L1265.41527,267.306922 C1266.1915,267.306922 1266.82076,267.965963 1266.82076,268.77893 C1266.82076,269.591898 1266.1915,270.250939 1265.41527,270.250939 Z M1356.5945,270.250939 L1328.95307,270.250939 C1328.17684,270.250939 1327.54758,269.591898 1327.54758,268.77893 C1327.54758,267.965963 1328.17684,267.306922 1328.95307,267.306922 L1356.5945,267.306922 C1357.37074,267.306922 1358,267.965963 1358,268.77893 C1358,269.591898 1357.37074,270.250939 1356.5945,270.250939 Z M1255.17388,370.30826 L1215.44518,370.30826 C1214.66895,370.30826 1214.03969,369.64922 1214.03969,368.836252 C1214.03969,368.023284 1214.66895,367.364243 1215.44518,367.364243 L1255.17388,367.364243 C1255.95012,367.364243 1256.57938,368.023284 1256.57938,368.836252 C1256.57938,369.64922 1255.95012,370.30826 1255.17388,370.30826 Z M1288.16557,370.30826 L1268.76035,370.30826 C1267.98411,370.30826 1267.35485,369.64922 1267.35485,368.836252 C1267.35485,368.023284 1267.98411,367.364243 1268.76035,367.364243 L1288.13746,367.364243 C1288.63959,367.358984 1289.10627,367.634688 1289.36168,368.0875 C1289.6171,368.540311 1289.62246,369.101438 1289.37574,369.559508 C1289.12902,370.017579 1288.6677,370.303001 1288.16557,370.30826 Z M1350.33536,390.229441 L1328.95307,390.229441 C1328.17684,390.229441 1327.54758,389.570401 1327.54758,388.757433 C1327.54758,387.944465 1328.17684,387.285424 1328.95307,387.285424 L1350.33536,387.285424 C1351.11159,387.285424 1351.74086,387.944465 1351.74086,388.757433 C1351.74086,389.570401 1351.11159,390.229441 1350.33536,390.229441 Z M1301.16173,330.24019 L1272.72385,330.24019 C1271.94761,330.24019 1271.31835,329.581149 1271.31835,328.768182 C1271.31835,327.955214 1271.94761,327.296173 1272.72385,327.296173 L1301.16173,327.296173 C1301.93796,327.296173 1302.56722,327.955214 1302.56722,328.768182 C1302.56722,329.581149 1301.93796,330.24019 1301.16173,330.24019 Z M1237.44589,350.161371 L1228.83488,350.161371 C1228.05865,350.161371 1227.42938,349.502331 1227.42938,348.689363 C1227.42938,347.876395 1228.05865,347.217354 1228.83488,347.217354 L1237.44589,347.217354 C1238.22212,347.217354 1238.85138,347.876395 1238.85138,348.689363 C1238.85138,349.502331 1238.22212,350.161371 1237.44589,350.161371 Z M1268.76035,350.161371 L1248.97096,350.161371 C1248.19472,350.161371 1247.56546,349.502331 1247.56546,348.689363 C1247.56546,347.876395 1248.19472,347.217354 1248.97096,347.217354 L1268.76035,347.217354 C1269.53658,347.217354 1270.16584,347.876395 1270.16584,348.689363 C1270.16584,349.502331 1269.53658,350.161371 1268.76035,350.161371 Z M1351.42228,350.161371 L1329.05614,350.161371 C1328.27991,350.161371 1327.65065,349.502331 1327.65065,348.689363 C1327.65065,347.876395 1328.27991,347.217354 1329.05614,347.217354 L1351.42228,347.217354 C1352.19851,347.217354 1352.82777,347.876395 1352.82777,348.689363 C1352.82777,349.502331 1352.19851,350.161371 1351.42228,350.161371 Z M1301.44282,430.297511 L1253.33737,430.297511 C1252.56113,430.297511 1251.93187,429.638471 1251.93187,428.825503 C1251.93187,428.012535 1252.56113,427.353495 1253.33737,427.353495 L1301.44282,427.353495 C1302.21906,427.353495 1302.84832,428.012535 1302.84832,428.825503 C1302.84832,429.638471 1302.21906,430.297511 1301.44282,430.297511 Z M1305.67805,450.218693 L1280.26668,450.218693 C1279.49044,450.218693 1278.86118,449.559652 1278.86118,448.746684 C1278.86118,447.933716 1279.49044,447.274676 1280.26668,447.274676 L1305.67805,447.274676 C1306.45429,447.274676 1307.08355,447.933716 1307.08355,448.746684 C1307.08355,449.559652 1306.45429,450.218693 1305.67805,450.218693 Z M1266.73643,410.150622 L1227.53245,410.150622 C1226.75622,410.150622 1226.12696,409.491582 1226.12696,408.678614 C1226.12696,407.865646 1226.75622,407.206605 1227.53245,407.206605 L1266.73643,407.206605 C1267.51267,407.206605 1268.14193,407.865646 1268.14193,408.678614 C1268.14193,409.491582 1267.51267,410.150622 1266.73643,410.150622 Z M1301.44282,410.150622 L1289.59917,410.150622 C1288.82294,410.150622 1288.19368,409.491582 1288.19368,408.678614 C1288.19368,407.865646 1288.82294,407.206605 1289.59917,407.206605 L1301.44282,407.206605 C1302.21906,407.206605 1302.84832,407.865646 1302.84832,408.678614 C1302.84832,409.491582 1302.21906,410.150622 1301.44282,410.150622 Z M1237.53959,510.237384 L1194.4377,510.237384 C1193.66146,510.237384 1193.0322,509.578343 1193.0322,508.765375 C1193.0322,507.952408 1193.66146,507.293367 1194.4377,507.293367 L1237.53959,507.293367 C1238.31582,507.293367 1238.94508,507.952408 1238.94508,508.765375 C1238.94508,509.578343 1238.31582,510.237384 1237.53959,510.237384 Z M1304.30067,510.237384 L1250.32024,510.237384 C1249.544,510.237384 1248.91474,509.578343 1248.91474,508.765375 C1248.91474,507.952408 1249.544,507.293367 1250.32024,507.293367 L1304.30067,507.293367 C1305.0769,507.293367 1305.70616,507.952408 1305.70616,508.765375 C1305.70616,509.578343 1305.0769,510.237384 1304.30067,510.237384 Z M1196.82704,530.158565 L1143.80235,530.158565 C1143.02611,530.158565 1142.39685,529.499524 1142.39685,528.686557 C1142.39685,527.873589 1143.02611,527.214548 1143.80235,527.214548 L1196.82704,527.214548 C1197.60328,527.214548 1198.23254,527.873589 1198.23254,528.686557 C1198.23254,529.499524 1197.60328,530.158565 1196.82704,530.158565 Z M1239.3761,530.158565 L1211.60349,530.158565 C1210.82726,530.158565 1210.198,529.499524 1210.198,528.686557 C1210.198,527.873589 1210.82726,527.214548 1211.60349,527.214548 L1239.35736,527.214548 C1239.8595,527.211042 1240.32528,527.488366 1240.57924,527.942054 C1240.83321,528.395742 1240.83678,528.956868 1240.58861,529.414062 C1240.34045,529.871256 1239.87824,530.155059 1239.3761,530.158565 Z M1217.61902,470.169314 L1204.38861,470.169314 C1203.61238,470.169314 1202.98312,469.510273 1202.98312,468.697305 C1202.98312,467.884338 1203.61238,467.225297 1204.38861,467.225297 L1217.61902,467.225297 C1218.39525,467.225297 1219.02452,467.884338 1219.02452,468.697305 C1219.02452,469.510273 1218.39525,470.169314 1217.61902,470.169314 Z M1352.93084,470.169314 L1331.53919,470.169314 C1330.76295,470.169314 1330.13369,469.510273 1330.13369,468.697305 C1330.13369,467.884338 1330.76295,467.225297 1331.53919,467.225297 L1352.95895,467.225297 C1353.46109,467.230556 1353.9224,467.515979 1354.16912,467.974049 C1354.41584,468.43212 1354.41048,468.993246 1354.15507,469.446058 C1353.89965,469.898869 1353.43298,470.174573 1352.93084,470.169314 Z M1241.22199,490.090495 L1209.78572,490.090495 C1209.00948,490.090495 1208.38022,489.431454 1208.38022,488.618486 C1208.38022,487.805519 1209.00948,487.146478 1209.78572,487.146478 L1241.22199,487.146478 C1241.99822,487.146478 1242.62748,487.805519 1242.62748,488.618486 C1242.62748,489.431454 1241.99822,490.090495 1241.22199,490.090495 Z M1273.66085,490.090495 L1260.23367,490.090495 C1259.45744,490.090495 1258.82817,489.431454 1258.82817,488.618486 C1258.82817,487.805519 1259.45744,487.146478 1260.23367,487.146478 L1273.66085,487.146478 C1274.43708,487.146478 1275.06634,487.805519 1275.06634,488.618486 C1275.06634,489.431454 1274.43708,490.090495 1273.66085,490.090495 Z M1132.44594,590.147816 L1116.96674,590.147816 C1116.1905,590.147816 1115.56124,589.488776 1115.56124,588.675808 C1115.56124,587.86284 1116.1905,587.203799 1116.96674,587.203799 L1132.4272,587.203799 C1132.92933,587.200293 1133.39511,587.477617 1133.64908,587.931305 C1133.90304,588.384993 1133.90662,588.946119 1133.65845,589.403313 C1133.41028,589.860507 1132.94807,590.14431 1132.44594,590.147816 Z M1318.69295,590.147816 L1285.35458,590.147816 C1284.57834,590.147816 1283.94908,589.488776 1283.94908,588.675808 C1283.94908,587.86284 1284.57834,587.203799 1285.35458,587.203799 L1318.69295,587.203799 C1319.46918,587.203799 1320.09845,587.86284 1320.09845,588.675808 C1320.09845,589.488776 1319.46918,590.147816 1318.69295,590.147816 Z M1350.60709,590.147816 L1332.6261,590.147816 C1331.84987,590.147816 1331.22061,589.488776 1331.22061,588.675808 C1331.22061,587.86284 1331.84987,587.203799 1332.6261,587.203799 L1350.60709,587.203799 C1351.38332,587.203799 1352.01259,587.86284 1352.01259,588.675808 C1352.01259,589.488776 1351.38332,590.147816 1350.60709,590.147816 Z M1270.23143,610.068997 L1257.63819,610.068997 C1256.86195,610.068997 1256.23269,609.409957 1256.23269,608.596989 C1256.23269,607.784021 1256.86195,607.12498 1257.63819,607.12498 L1270.23143,607.12498 C1271.00767,607.12498 1271.63693,607.784021 1271.63693,608.596989 C1271.63693,609.409957 1271.00767,610.068997 1270.23143,610.068997 Z M1242.82425,610.068997 L1218.46232,610.068997 C1217.68608,610.068997 1217.05682,609.409957 1217.05682,608.596989 C1217.05682,607.784021 1217.68608,607.12498 1218.46232,607.12498 L1242.82425,607.12498 C1243.60049,607.12498 1244.22975,607.784021 1244.22975,608.596989 C1244.22975,609.409957 1243.60049,610.068997 1242.82425,610.068997 Z M1077.74402,610.068997 L1057.32684,610.068997 C1056.5506,610.068997 1055.92134,609.409957 1055.92134,608.596989 C1055.92134,607.784021 1056.5506,607.12498 1057.32684,607.12498 L1077.74402,607.12498 C1078.52025,607.12498 1079.14951,607.784021 1079.14951,608.596989 C1079.14951,609.409957 1078.52025,610.068997 1077.74402,610.068997 Z M1046.69192,610.068997 L987.661066,610.068997 C986.884832,610.068997 986.25557,609.409957 986.25557,608.596989 C986.25557,607.784021 986.884832,607.12498 987.661066,607.12498 L1046.69192,607.12498 C1047.46815,607.12498 1048.09741,607.784021 1048.09741,608.596989 C1048.09741,609.409957 1047.46815,610.068997 1046.69192,610.068997 Z M1141.12253,610.068997 L1093.78542,610.068997 C1093.00918,610.068997 1092.37992,609.409957 1092.37992,608.596989 C1092.37992,607.784021 1093.00918,607.12498 1093.78542,607.12498 L1141.12253,607.12498 C1141.89877,607.12498 1142.52803,607.784021 1142.52803,608.596989 C1142.52803,609.409957 1141.89877,610.068997 1141.12253,610.068997 Z M1298.97852,629.999992 L1237.1929,629.999992 C1236.41666,629.999992 1235.7874,629.340951 1235.7874,628.527983 C1235.7874,627.715016 1236.41666,627.055975 1237.1929,627.055975 L1298.97852,627.055975 C1299.75476,627.055975 1300.38402,627.715016 1300.38402,628.527983 C1300.38402,629.340951 1299.75476,629.999992 1298.97852,629.999992 Z M1110.87625,629.999992 L1076.53529,629.999992 C1075.75905,629.999992 1075.12979,629.340951 1075.12979,628.527983 C1075.12979,627.715016 1075.75905,627.055975 1076.53529,627.055975 L1110.87625,627.055975 C1111.65249,627.055975 1112.28175,627.715016 1112.28175,628.527983 C1112.28175,629.340951 1111.65249,629.999992 1110.87625,629.999992 Z M1010.22397,629.999992 L992.542824,629.999992 C991.76659,629.999992 991.137327,629.340951 991.137327,628.527983 C991.137327,627.715016 991.76659,627.055975 992.542824,627.055975 L1010.22397,627.055975 C1011.0002,627.055975 1011.62947,627.715016 1011.62947,628.527983 C1011.62947,629.340951 1011.0002,629.999992 1010.22397,629.999992 Z M980.315005,629.999992 L916.720978,629.999992 C915.944743,629.999992 915.315481,629.340951 915.315481,628.527983 C915.315481,627.715016 915.944743,627.055975 916.720978,627.055975 L980.324375,627.055975 C980.826511,627.057728 981.28961,627.339911 981.539228,627.796228 C981.788846,628.252546 981.787061,628.813672 981.534543,629.268237 C981.282026,629.722801 980.817141,630.001745 980.315005,629.999992 Z M301.947478,610.068997 L286.327728,610.068997 C285.551494,610.068997 284.922232,609.409957 284.922232,608.596989 C284.922232,607.784021 285.551494,607.12498 286.327728,607.12498 L301.938108,607.12498 C302.714343,607.122271 303.345702,607.779114 303.34829,608.592082 C303.350877,609.40505 302.723713,610.066287 301.947478,610.068997 Z M60.4550855,610.068997 L41.874423,610.068997 C41.0981888,610.068997 40.4689266,609.409957 40.4689266,608.596989 C40.4689266,607.784021 41.0981888,607.12498 41.874423,607.12498 L60.4550855,607.12498 C61.2313198,607.12498 61.8605819,607.784021 61.8605819,608.596989 C61.8605819,609.409957 61.2313198,610.068997 60.4550855,610.068997 Z M329.954337,610.068997 L313.26641,610.068997 C312.490175,610.068997 311.860913,609.409957 311.860913,608.596989 C311.860913,607.784021 312.490175,607.12498 313.26641,607.12498 L329.954337,607.12498 C330.730571,607.12498 331.359833,607.784021 331.359833,608.596989 C331.359833,609.409957 330.730571,610.068997 329.954337,610.068997 Z M330.685195,629.999992 L268.899573,629.999992 C268.123339,629.999992 267.494076,629.340951 267.494076,628.527983 C267.494076,627.715016 268.123339,627.055975 268.899573,627.055975 L330.685195,627.055975 C331.461429,627.055975 332.090691,627.715016 332.090691,628.527983 C332.090691,629.340951 331.461429,629.999992 330.685195,629.999992 Z M255.022638,629.999992 L198.306173,629.999992 C197.529939,629.999992 196.900677,629.340951 196.900677,628.527983 C196.900677,627.715016 197.529939,627.055975 198.306173,627.055975 L255.022638,627.055975 C255.798873,627.055975 256.428135,627.715016 256.428135,628.527983 C256.428135,629.340951 255.798873,629.999992 255.022638,629.999992 Z M172.13583,629.999992 L157.275048,629.999992 C156.498814,629.999992 155.869552,629.340951 155.869552,628.527983 C155.869552,627.715016 156.498814,627.055975 157.275048,627.055975 L172.12646,627.055975 C172.628596,627.054222 173.093481,627.333165 173.345998,627.78773 C173.598516,628.242294 173.600302,628.803421 173.350683,629.259738 C173.101065,629.716056 172.637966,629.998239 172.13583,629.999992 Z M91.6758457,629.999992 L24.2120181,629.999992 C23.4357839,629.999992 22.8065217,629.340951 22.8065217,628.527983 C22.8065217,627.715016 23.4357839,627.055975 24.2120181,627.055975 L91.6758457,627.055975 C92.45208,627.055975 93.0813422,627.715016 93.0813422,628.527983 C93.0813422,629.340951 92.45208,629.999992 91.6758457,629.999992 Z M406.272792,629.999992 L344.56213,629.999992 C343.785895,629.999992 343.156633,629.340951 343.156633,628.527983 C343.156633,627.715016 343.785895,627.055975 344.56213,627.055975 L406.272792,627.055975 C407.049026,627.055975 407.678288,627.715016 407.678288,628.527983 C407.678288,629.340951 407.049026,629.999992 406.272792,629.999992 Z M1194.42833,550.079746 L1181.97563,550.079746 C1181.1994,550.079746 1180.57013,549.420705 1180.57013,548.607738 C1180.57013,547.79477 1181.1994,547.135729 1181.97563,547.135729 L1194.42833,547.135729 C1195.20456,547.135729 1195.83382,547.79477 1195.83382,548.607738 C1195.83382,549.420705 1195.20456,550.079746 1194.42833,550.079746 Z M1193.20086,610.068997 L1164.69739,610.068997 C1163.92116,610.068997 1163.2919,609.409957 1163.2919,608.596989 C1163.2919,607.784021 1163.92116,607.12498 1164.69739,607.12498 L1193.20086,607.12498 C1202.1388,607.114165 1209.38185,599.528349 1209.39218,590.167443 L1209.39218,567.02747 C1209.40251,556.04063 1217.90409,547.136735 1228.39449,547.125916 L1351.42228,547.125916 C1352.19851,547.125916 1352.82777,547.784956 1352.82777,548.597924 C1352.82777,549.410892 1352.19851,550.069933 1351.42228,550.069933 L1228.39449,550.069933 C1219.45655,550.080748 1212.2135,557.666564 1212.20317,567.02747 L1212.20317,590.167443 C1212.19284,601.154283 1203.69127,610.058178 1193.20086,610.068997 Z M137.410699,70.4405112 C126.071606,70.4351095 116.877845,60.8150548 116.862341,48.9393744 C116.862341,48.1264066 117.491604,47.467366 118.267838,47.467366 C119.044072,47.467366 119.673334,48.1264066 119.673334,48.9393744 C119.683663,59.1837046 127.610514,67.4856767 137.391959,67.4964943 L223.445819,67.4964943 C232.383756,67.4856787 239.626811,59.8998626 239.637138,50.5389569 L239.637138,1.47200845 C239.637138,0.659040633 240.2664,1.49806954e-16 241.042634,0 C241.818868,-1.49806954e-16 242.44813,0.659040633 242.44813,1.47200845 L242.44813,50.5389569 C242.4378,61.5257973 233.936224,70.4296921 223.445819,70.4405112 L141.505378,70.4405112 L137.410699,70.4405112 Z" id="Shape"></path>
                    <path d="M178.777203,575.060001 C176.308857,575.060001 174.08356,573.502096 173.138965,571.112735 C172.19437,568.723374 172.716498,565.9731 174.461883,564.144362 C176.207267,562.315624 178.832183,561.768561 181.112637,562.758267 C183.393092,563.747972 184.879987,566.079542 184.879987,568.665768 C184.874825,572.194962 182.145537,575.054592 178.777203,575.060001 Z M178.777203,565.23783 C176.959942,565.23783 175.486761,566.781365 175.486761,568.685412 C175.486761,570.589459 176.959942,572.132994 178.777203,572.132994 C180.594464,572.132994 182.067644,570.589459 182.067644,568.685412 C182.080192,567.762577 181.739069,566.873002 181.120626,566.215794 C180.502184,565.558586 179.658064,565.188626 178.777203,565.188719 L178.777203,565.23783 Z M53.102963,394.901752 C50.634617,394.901752 48.4093203,393.343847 47.4647252,390.954486 C46.5201301,388.565125 47.0422584,385.814851 48.7876426,383.986113 C50.5330268,382.157376 53.1579432,381.610312 55.4383975,382.600018 C57.7188518,383.589724 59.2057476,385.921293 59.2057476,388.507519 C59.2005854,392.036713 56.4712973,394.896343 53.102963,394.901752 Z M53.102963,385.079581 C51.2857023,385.079581 49.8125215,386.623116 49.8125215,388.527163 C49.8125215,390.43121 51.2857023,391.974745 53.102963,391.974745 C54.9202236,391.974745 56.3934044,390.43121 56.3934044,388.527163 C56.3958953,387.611107 56.0503248,386.731676 55.4329771,386.083003 C54.8156294,385.43433 53.977269,385.069756 53.102963,385.069759 L53.102963,385.079581 Z M134.426552,214.77297 C131.056077,214.77297 128.323767,211.910174 128.323767,208.378737 C128.323767,204.847299 131.056077,201.984504 134.426552,201.984504 C137.797027,201.984504 140.529336,204.847299 140.529336,208.378737 C140.524174,211.907931 137.794886,214.767561 134.426552,214.77297 Z M134.426552,204.950799 C132.609291,204.950799 131.13611,206.494334 131.13611,208.398381 C131.13611,210.302428 132.609291,211.845963 134.426552,211.845963 C136.243812,211.845963 137.716993,210.302428 137.716993,208.398381 C137.721984,207.480627 137.377518,206.598666 136.759899,205.947864 C136.14228,205.297062 135.302489,204.93114 134.426552,204.931155 L134.426552,204.950799 Z M98.1566999,289.971506 C97.7838857,289.971162 97.4264607,289.815711 97.1630053,289.53933 L78.039072,269.541391 C77.522803,268.960882 77.5380365,268.05626 78.0735292,267.495194 C78.609022,266.934128 79.4724113,266.918167 80.0264612,267.459091 L99.1503945,287.496319 C99.5263234,287.920624 99.6302352,288.536283 99.4159922,289.069939 C99.2017493,289.603596 98.709067,289.956322 98.1566999,289.971506 Z M320.378679,49.6524636 C319.810321,49.6519399 319.298148,49.2929819 319.080714,48.7427804 C318.86328,48.1925789 318.983344,47.5593332 319.384985,47.137988 L338.227684,27.3954256 C338.781734,26.8545013 339.645123,26.8704623 340.180616,27.4315284 C340.716109,27.9925945 340.731342,28.8972163 340.215073,29.4777257 L321.372374,49.2202881 C321.108919,49.4966693 320.751494,49.6521198 320.378679,49.6524636 Z M1273.54739,289.755418 C1273.17457,289.755074 1272.81715,289.599624 1272.55369,289.323243 L1253.64537,269.462814 C1253.1291,268.882305 1253.14434,267.977683 1253.67983,267.416617 C1254.21532,266.855551 1255.07871,266.83959 1255.63276,267.380514 L1274.58795,287.240942 C1274.99618,287.668541 1275.11354,288.314107 1274.88391,288.868996 C1274.65427,289.423886 1274.12431,289.775375 1273.54739,289.755418 Z M1234.3152,89.6581635 C1233.74684,89.6576397 1233.23467,89.2986818 1233.01723,88.7484803 C1232.7998,88.1982788 1232.91987,87.5650331 1233.32151,87.1436879 L1252.2767,67.2832594 C1252.83075,66.7423351 1253.69414,66.7582961 1254.22963,67.3193622 C1254.76512,67.8804283 1254.78036,68.7850501 1254.26409,69.3655596 L1235.30889,89.225988 C1235.04544,89.5023691 1234.68801,89.6578196 1234.3152,89.6581635 Z M1212.21018,509.939011 C1211.64182,509.938487 1211.12965,509.579529 1210.91222,509.029328 C1210.69478,508.479126 1210.81485,507.845881 1211.21649,507.424535 L1230.20918,487.593573 C1230.76323,487.052649 1231.62662,487.06861 1232.16211,487.629676 C1232.6976,488.190742 1232.71284,489.095364 1232.19657,489.675874 L1213.24138,509.536302 C1212.96413,509.811745 1212.59186,509.957129 1212.21018,509.939011 Z M114.458916,589.999522 C113.890557,589.998998 113.378384,589.64004 113.16095,589.089838 C112.943516,588.539637 113.06358,587.906391 113.465221,587.485046 L132.457912,567.624618 C132.808462,567.230448 133.336404,567.068193 133.834626,567.201507 C134.332849,567.334821 134.721889,567.74244 134.849126,568.264456 C134.976363,568.786471 134.821504,569.339626 134.445301,569.706918 L115.490108,589.567346 C115.217536,589.853553 114.844683,590.009817 114.458916,589.999522 Z" id="Shape"></path>
                    <path d="M115.503458,390.287712 L57.4055935,390.287712 C56.6293056,390.287712 56,389.6288 56,388.815991 C56,388.003181 56.6293056,387.344269 57.4055935,387.344269 L115.503458,387.344269 C119.777066,387.394378 123.890663,385.644351 126.91979,382.487475 C129.948917,379.330598 131.639482,375.031681 131.61156,370.556829 L131.817713,327.28821 C131.848688,316.325851 140.34213,307.454759 150.811967,307.449401 L166.620208,307.449401 C176.357291,307.449437 184.258005,299.198964 184.283833,289.003822 C184.283833,288.191012 184.913139,287.5321 185.689427,287.5321 C186.465714,287.5321 187.09502,288.191012 187.09502,289.003822 C187.069186,300.824584 177.909863,310.392875 166.620208,310.392845 L150.821337,310.392845 C141.893119,310.392819 134.649567,317.959598 134.6289,327.307833 L134.422747,370.566641 C134.386588,381.47705 125.923692,390.298597 115.503458,390.287712 Z M95.5346598,490.129316 C94.7583719,490.129316 94.1290663,489.470403 94.1290663,488.657594 C94.1290663,487.844784 94.7583719,487.185872 95.5346598,487.185872 C105.182213,487.137213 112.971227,478.920302 112.945278,468.818785 C112.945278,468.005975 113.574584,467.347063 114.350871,467.347063 C115.127159,467.347063 115.756465,468.005975 115.756465,468.818785 C115.777245,480.54369 106.732635,490.075254 95.5346598,490.129316 Z M295.063342,35.4850339 C291.694253,35.4850339 288.963066,32.6253546 288.963066,29.0977615 C288.963066,25.5701684 291.694253,22.7104891 295.063342,22.7104891 C298.432431,22.7104891 301.163618,25.5701684 301.163618,29.0977615 C301.158458,32.6231143 298.430292,35.479631 295.063342,35.4850339 Z M295.063342,25.6735556 C293.246828,25.6735556 291.774253,27.2154103 291.774253,29.1173845 C291.774253,31.0193586 293.246828,32.5612133 295.063342,32.5612133 C296.879856,32.5612133 298.352431,31.0193586 298.352431,29.1173845 C298.352431,27.2154103 296.879856,25.6735556 295.063342,25.6735556 Z M1295.54605,135.34626 C1292.17696,135.34626 1289.44578,132.486581 1289.44578,128.958988 C1289.44578,125.431395 1292.17696,122.571715 1295.54605,122.571715 C1298.91514,122.571715 1301.64633,125.431395 1301.64633,128.958988 C1301.64117,132.48434 1298.913,135.340857 1295.54605,135.34626 Z M1295.54605,125.534782 C1293.72954,125.534782 1292.25696,127.076636 1292.25696,128.978611 C1292.25696,130.880585 1293.72954,132.42244 1295.54605,132.42244 C1297.36257,132.42244 1298.83514,130.880585 1298.83514,128.978611 C1298.84013,128.061855 1298.49581,127.180854 1297.87844,126.530761 C1297.26107,125.880667 1296.42163,125.515144 1295.54605,125.515159 L1295.54605,125.534782 Z M1284.79795,415.120564 C1282.33062,415.120564 1280.10623,413.564355 1279.16203,411.177595 C1278.21782,408.790835 1278.73973,406.043555 1280.4844,404.216808 C1282.22907,402.390061 1284.8529,401.843593 1287.13242,402.832221 C1289.41194,403.82085 1290.89822,406.149881 1290.89822,408.733292 C1290.89822,412.260885 1288.16704,415.120564 1284.79795,415.120564 Z M1284.79795,405.309086 C1282.98143,405.309086 1281.50886,406.85094 1281.50886,408.752915 C1281.50886,410.654889 1282.98143,412.196743 1284.79795,412.196743 C1286.61446,412.196743 1288.08704,410.654889 1288.08704,408.752915 C1288.08953,407.837856 1287.7441,406.959382 1287.127,406.311415 C1286.50991,405.663448 1285.67189,405.29927 1284.79795,405.299274 L1284.79795,405.309086 Z M1159.75635,615 C1156.38726,615 1153.65607,612.140321 1153.65607,608.612728 C1153.65607,605.085134 1156.38726,602.225455 1159.75635,602.225455 C1163.12544,602.225455 1165.85663,605.085134 1165.85663,608.612728 C1165.85147,612.13808 1163.1233,614.994597 1159.75635,615 Z M1159.75635,605.188522 C1157.93984,605.188522 1156.46726,606.730376 1156.46726,608.632351 C1156.46726,610.534325 1157.93984,612.076179 1159.75635,612.076179 C1161.57286,612.076179 1163.04544,610.534325 1163.04544,608.632351 C1163.04793,607.717292 1162.7025,606.838818 1162.08541,606.190851 C1161.46831,605.542884 1160.6303,605.178707 1159.75635,605.17871 L1159.75635,605.188522 Z M1287.41235,190.437711 C1286.63606,190.437711 1286.00676,189.778798 1286.00676,188.965989 C1286.00676,188.15318 1286.63606,187.494267 1287.41235,187.494267 C1297.09614,187.483452 1304.94383,179.266559 1304.95416,169.12718 C1304.95416,168.31437 1305.58346,167.655458 1306.35975,167.655458 C1307.13604,167.655458 1307.76534,168.31437 1307.76534,169.12718 C1307.74986,180.889939 1298.64658,190.421497 1287.41235,190.437711 Z M1057.83208,70.4040852 C1057.05579,70.4040852 1056.42649,69.7451729 1056.42649,68.9323634 C1056.43682,57.1511101 1065.5557,47.6032165 1076.80759,47.5923981 C1077.58388,47.5923981 1078.21319,48.2513104 1078.21319,49.0641199 C1078.21319,49.8769293 1077.58388,50.5358416 1076.80759,50.5358416 C1067.10828,50.546657 1059.248,58.7767282 1059.23767,68.9323634 C1059.23767,69.7451729 1058.60837,70.4040852 1057.83208,70.4040852 Z M1246.92189,48.9954395 C1246.1456,48.9954395 1245.51629,48.3365272 1245.51629,47.5237178 C1245.54211,36.5575251 1254.03706,27.6804712 1264.51055,27.6750972 L1352.59441,27.6750972 C1353.37069,27.6750972 1354,28.3340094 1354,29.1468189 C1354,29.9596284 1353.37069,30.6185406 1352.59441,30.6185406 L1264.51055,30.6185406 C1260.21604,30.6081199 1256.09348,32.3843783 1253.04977,35.5565566 C1250.00607,38.7287349 1248.29056,43.036983 1248.28063,47.5335292 C1248.27602,48.3237519 1247.6762,48.969113 1246.92189,48.9954395 Z M1351.57301,450.265279 L1332.39134,450.265279 C1321.90021,450.254462 1313.39805,441.352302 1313.38772,430.367601 L1313.38772,349.668192 C1313.38772,348.855383 1314.01702,348.19647 1314.79331,348.19647 C1315.5696,348.19647 1316.19891,348.855383 1316.19891,349.668192 L1316.19891,430.367601 C1316.20923,439.726684 1323.45279,447.311022 1332.39134,447.321836 L1351.58238,447.321836 C1352.35867,447.324545 1352.98587,447.985654 1352.98329,448.798463 C1352.9807,449.611273 1352.3493,450.267989 1351.57301,450.265279 Z M1227.57155,169.715869 C1226.79526,169.715869 1226.16596,169.056956 1226.16596,168.244147 C1226.14529,158.901331 1218.90593,151.338945 1209.98289,151.33897 L1152.0537,151.417462 C1141.58447,151.401327 1133.09553,142.530555 1133.05944,131.568841 L1132.79707,5.47172175 C1132.79707,4.65891227 1133.42637,4 1134.20266,4 C1134.97895,4 1135.60825,4.65891227 1135.60825,5.47172175 L1135.78629,131.568841 C1135.81724,140.907174 1143.05058,148.463272 1151.96936,148.474018 L1209.89855,148.395526 C1220.37204,148.4009 1228.86699,157.277954 1228.89281,168.244147 C1228.89281,169.056956 1228.2635,169.715869 1227.48721,169.715869 L1227.57155,169.715869 Z" id="Shape"></path>
                    <path d="M1315.20106,358 C1314.42449,358 1313.79495,357.33979 1313.79495,356.52538 L1313.79495,266.956956 C1313.78461,257.581037 1306.53684,249.98458 1297.59646,249.979163 L1245.43884,249.979163 C1234.94379,249.968325 1226.43845,241.048633 1226.42812,230.0423 L1226.42812,222.905139 L1226.59685,126.88771 C1226.62268,115.899921 1235.1208,107.005385 1245.5982,107 L1358.59388,107.078646 C1359.37046,107.078646 1360,107.738856 1360,108.553266 C1360,109.367677 1359.37046,110.027887 1358.59388,110.027887 L1245.5982,109.94924 C1236.66664,109.949215 1229.42039,117.530895 1229.39971,126.89754 L1229.21223,230.052131 C1229.22257,239.428049 1236.47034,247.024507 1245.41072,247.029923 L1297.56834,247.029923 C1308.05973,247.040751 1316.56356,255.954462 1316.57906,266.956956 L1316.57906,356.52538 C1316.57921,357.32841 1315.96664,357.983939 1315.20106,358 Z M177.360596,209.90882 C176.584018,209.90882 175.954477,209.24861 175.954477,208.4342 C175.944144,198.274853 168.093526,190.041778 158.406118,190.030942 C157.629541,190.030941 157,189.370732 157,188.556321 C157,187.741911 157.629541,187.081701 158.406118,187.081701 C169.644542,187.097947 178.751224,196.648276 178.766714,208.4342 C178.766714,209.24861 178.137174,209.90882 177.360596,209.90882 Z" id="Shape"></path>
                </g>
            </g>
        </g>
    </g>
</svg>