<?xml version="1.0" standalone="no"?>
<!DOCTYPE svg PUBLIC "-//W3C//DTD SVG 20010904//EN"
 "http://www.w3.org/TR/2001/REC-SVG-20010904/DTD/svg10.dtd">
<svg version="1.0" xmlns="http://www.w3.org/2000/svg"
 width="1052.000000pt" height="1052.000000pt" viewBox="0 0 1052.000000 1052.000000"
 preserveAspectRatio="xMidYMid meet">
<metadata>
Created by potrace 1.11, written by Peter Selinger 2001-2013
</metadata>
<g transform="translate(0.000000,1052.000000) scale(0.100000,-0.100000)"
fill="#000000" stroke="none">
<path d="M2608 10515 c-2 -2 -70 -6 -153 -9 -82 -4 -166 -9 -185 -11 -19 -1
-69 -6 -110 -9 -41 -4 -102 -11 -135 -16 -33 -5 -78 -12 -100 -16 -22 -3 -80
-15 -130 -26 -49 -11 -98 -21 -108 -23 -66 -14 -283 -97 -393 -151 -246 -119
-466 -280 -650 -474 -311 -328 -524 -779 -589 -1245 -3 -22 -8 -56 -11 -75 -3
-19 -8 -52 -10 -72 -2 -21 -6 -57 -9 -80 -16 -146 -19 -650 -19 -3053 0 -2409
3 -2840 18 -2995 3 -25 8 -74 11 -110 9 -103 35 -268 56 -360 30 -134 93 -336
110 -354 5 -6 9 -16 9 -23 0 -23 126 -267 186 -360 222 -345 561 -639 939
-813 123 -57 397 -149 417 -140 2 1 15 -3 30 -9 15 -6 69 -17 120 -26 51 -9
104 -18 118 -21 14 -2 45 -6 70 -9 25 -3 61 -8 80 -10 138 -17 599 -20 3070
-20 2732 0 2966 2 3175 30 22 3 63 8 90 11 182 21 456 96 645 176 147 62 353
187 500 304 105 84 279 257 345 344 27 36 52 67 55 70 23 18 142 217 196 325
129 262 208 541 240 845 3 30 7 66 10 80 16 100 19 606 19 3050 0 2746 -2
2922 -31 3165 -2 22 -7 63 -10 90 -9 85 -54 292 -84 395 -131 440 -402 837
-760 1117 -180 140 -437 279 -652 352 -103 35 -331 91 -428 105 -19 2 -57 8
-85 12 -27 3 -58 8 -68 10 -10 2 -57 6 -105 9 -48 3 -112 9 -142 12 -50 5
-5537 12 -5542 8z"/>
</g>
</svg>
